<?xml version="1.0" encoding="utf-8"?>
<!-- Generator: Adobe Illustrator 22.1.0, SVG Export Plug-In . SVG Version: 6.00 Build 0)  -->
<svg version="1.1" id="Layer_1" xmlns="http://www.w3.org/2000/svg" xmlns:xlink="http://www.w3.org/1999/xlink" x="0px" y="0px"
	 viewBox="0 0 512 512" style="enable-background:new 0 0 512 512;" xml:space="preserve">
<style type="text/css">
	.st0{fill:#FCE575;}
	.st1{fill:#FFD551;}
	.st2{fill:#FFA730;}
	.st3{fill:#E58D23;}
	.st4{fill:#FF624B;}
	.st5{fill:#FFF4C1;}
	.st6{fill:#FCDA4F;}
	.st7{fill:#FF4B34;}
	.st8{fill:#CCC033;}
	.st9{fill:#99AF17;}
	.st10{fill:#FF9079;}
	.st11{fill:#EACF32;}
	.st12{fill:#F9BB32;}
	.st13{fill:#FFEA63;}
	.st14{fill:#FFEACF;}
	.st15{fill:#FFD59A;}
	.st16{fill:#FFC34C;}
	.st17{fill:#A56021;}
	.st18{fill:#FFDF74;}
	.st19{fill:#BF6C0D;}
	.st20{fill:#FFB74B;}
	.st21{fill:#8C4C17;}
	.st22{fill:#FCF9DE;}
	.st23{fill:#DB9C2E;}
	.st24{fill:#FFF9DC;}
	.st25{fill:none;}
</style>
<g>
	<g>
		<path class="st16" d="M415.151,484.237H96.849v-44.3c0-52.467,42.533-95,95-95h128.301c52.467,0,95,42.533,95,95V484.237z"/>
	</g>
	<g>
		<path class="st2" d="M147.75,462.01c0-53.412,43.299-96.712,96.712-96.712H369.34c3.035,0,6.035,0.147,8.998,0.421
			c-16.472-13.013-37.278-20.781-59.899-20.781H193.561c-53.413,0-96.712,43.3-96.712,96.712v42.587h50.901V462.01z"/>
	</g>
	<g>
		<path class="st14" d="M256.781,403.474h-1.562c-23.932,0-43.333-19.401-43.333-43.333V254.164h88.229v105.977
			C300.114,384.073,280.713,403.474,256.781,403.474z"/>
	</g>
	<g>
		<path class="st17" d="M326.699,445.578l-0.635-0.102c-9.725-1.558-16.346-10.704-14.789-20.429l13.94-87.04
			c0.524-3.272,3.601-5.5,6.873-4.976l24.004,3.844c3.272,0.524,5.5,3.601,4.976,6.873l-13.94,87.04
			C345.57,440.514,336.424,447.135,326.699,445.578z"/>
	</g>
	<g>
		<path class="st17" d="M370.273,484.237H141.727v-44.475c0-11.046,8.954-20,20-20h188.546c11.046,0,20,8.954,20,20V484.237z"/>
	</g>
	<g>
		<path class="st15" d="M252.607,359.36V254.164h-40.721V359.36c0,24.364,19.751,44.114,44.114,44.114h0
			c7.347,0,14.268-1.806,20.36-4.983C262.248,391.133,252.607,376.377,252.607,359.36z"/>
	</g>
	<g>
		<path class="st17" d="M169.786,231.038h34.634v-94.014c0-11.046-8.954-20-20-20h-14.634c-11.046,0-20,8.954-20,20v74.014
			C149.786,222.083,158.741,231.038,169.786,231.038z"/>
	</g>
	<g>
		<path class="st17" d="M341.853,117.065H327.94c-11.244,0-20.36,7.292-20.36,16.288v14.182
			c22.034,13.111,36.31,34.099,36.31,57.756v25.706c10.288-0.817,18.324-7.76,18.324-16.205v-81.438
			C362.214,124.358,353.098,117.065,341.853,117.065z"/>
	</g>
	<g>
		<circle class="st14" cx="345.925" cy="206.579" r="29.085"/>
	</g>
	<g>
		<circle class="st15" cx="162.681" cy="206.579" r="29.085"/>
	</g>
	<g>
		<path class="st14" d="M257.592,310.125h-3.184c-48.785,0-88.333-39.548-88.333-88.333v-48.964
			c0-48.785,39.548-88.333,88.333-88.333h3.184c48.785,0,88.333,39.548,88.333,88.333v48.964
			C345.925,270.577,306.377,310.125,257.592,310.125z"/>
	</g>
	<g>
		<path class="st15" d="M206.796,220.2v-45.781c0-42.661,29.708-78.384,69.565-87.61c-6.542-1.514-13.358-2.315-20.36-2.315h0
			c-49.664,0-89.925,40.261-89.925,89.925V220.2c0,49.664,40.261,89.925,89.925,89.925h0c7.003,0,13.818-0.801,20.36-2.315
			C236.504,298.584,206.796,262.861,206.796,220.2z"/>
	</g>
	<g>
		<path class="st0" d="M361.004,171.416c2.373-9.122,3.644-18.702,3.644-28.587C364.648,81.521,316.004,31.82,256,31.82
			s-108.648,49.7-108.648,111.009c0,9.885,1.271,19.465,3.644,28.587H361.004z"/>
	</g>
	<g>
		<path class="st21" d="M202.808,419.763h-40.721c-11.245,0-20.36,9.115-20.36,20.36v44.114h40.721v-44.114
			C182.448,428.878,191.564,419.763,202.808,419.763z"/>
	</g>
	<g>
		<path class="st17" d="M185.695,445.578l0.635-0.102c9.725-1.558,16.346-10.704,14.789-20.429l-13.94-87.04
			c-0.524-3.272-3.601-5.5-6.873-4.976l-24.004,3.844c-3.272,0.524-5.5,3.601-4.976,6.873l13.94,87.04
			C166.824,440.514,175.97,447.135,185.695,445.578z"/>
	</g>
	<g>
		<path class="st21" d="M185.576,430.471l-13.872-86.616c-0.533-3.331,1.734-6.464,5.065-6.997l9.253-1.482
			c-1.321-1.729-3.524-2.696-5.823-2.328l-23.79,3.81c-3.331,0.534-5.599,3.666-5.065,6.997l13.872,86.616
			c1.586,9.9,10.897,16.641,20.797,15.055l0,0c2.714-0.434,5.178-1.466,7.311-2.915C189.324,439.899,186.4,435.62,185.576,430.471z"
			/>
	</g>
	<g>
		<path class="st21" d="M331.687,434.91l13.872-86.616c0.534-3.331,3.666-5.599,6.997-5.065l8.38,1.342l0.115-0.715
			c0.533-3.331-1.734-6.464-5.065-6.997l-23.79-3.81c-3.331-0.534-6.464,1.734-6.997,5.065l-13.872,86.616
			c-1.586,9.9,5.155,19.212,15.055,20.797h0c2.305,0.369,4.572,0.27,6.723-0.198C331.662,442.18,331.098,438.587,331.687,434.91z"/>
	</g>
	<g>
		<path class="st18" d="M276.36,33.775c-6.596-1.278-13.4-1.955-20.36-1.955c-60.005,0-108.648,49.7-108.648,111.009
			c0,9.885,1.271,19.465,3.644,28.587h40.721c-2.373-9.122-3.644-18.702-3.644-28.587C188.073,88.632,226.089,43.514,276.36,33.775z
			"/>
	</g>
	<g>
		<path class="st18" d="M256,31.82c-16.731,0-32.578,3.868-46.734,10.771c-1.806,1.251-3.596,2.536-5.347,3.895l-0.001,0.001
			c-4.3,3.337-5.144,9.499-1.9,13.869l74.233,100.014l64.678-86.768C321.021,48.138,290.378,31.82,256,31.82z"/>
	</g>
	<g>
		<path class="st18" d="M276.36,33.775c-6.596-1.278-13.4-1.955-20.36-1.955c-60.005,0-108.648,49.7-108.648,111.009
			c0,9.885,1.271,19.465,3.644,28.587h40.721c-2.373-9.122-3.644-18.702-3.644-28.587C188.073,88.632,226.089,43.514,276.36,33.775z
			"/>
	</g>
	<g>
		<path class="st0" d="M181.658,66.464c-3.244-4.37-2.4-10.532,1.9-13.869l0.001-0.001c20.932-16.244,45.95-24.831,72.35-24.831
			c26.488,0,51.574,8.639,72.546,24.984v0c4.293,3.346,5.124,9.509,1.872,13.873l-74.436,99.858L181.658,66.464z"/>
	</g>
	<g>
		<path class="st18" d="M214.098,52.595l0.001-0.001c16.408-12.734,35.333-20.736,55.461-23.611l-9.146-1.125
			c-1.497-0.057-2.998-0.094-4.505-0.094c-26.4,0-51.418,8.587-72.35,24.831l-0.001,0.001c-4.3,3.337-5.144,9.499-1.9,13.869
			l20.554,27.692c0,0,10.818-15.715,15.205-20.661l-5.218-7.031C208.954,62.093,209.799,55.931,214.098,52.595z"/>
	</g>
	<g>
		<path class="st0" d="M372.907,171.416H139.093c-6.627,0-12-5.373-12-12v-14.334c0-6.627,5.373-12,12-12h233.814
			c6.627,0,12,5.373,12,12v14.334C384.907,166.044,379.534,171.416,372.907,171.416z"/>
	</g>
	<g>
		<path class="st18" d="M190.21,151.056c-6.747,0-12.216-5.469-12.216-12.216v-5.757h-38.685c-6.747,0-12.216,5.47-12.216,12.216
			V159.2c0,6.747,5.469,12.216,12.216,12.216h233.381c6.747,0,12.216-5.469,12.216-12.216v-8.144H190.21z"/>
	</g>
	<g>
		<path class="st1" d="M400.523,473.749c-3.282,0-5.961-2.642-5.998-5.932l-0.305-27.081c-0.002-0.208,0.006-0.417,0.025-0.625
			c2.279-24.447-10.081-32.174-10.608-32.491c-2.891-1.619-3.884-5.253-2.265-8.145c1.619-2.891,5.315-3.9,8.205-2.281
			c0.802,0.449,19.537,11.331,16.645,43.713l0.302,26.774c0.038,3.313-2.618,6.03-5.932,6.067
			C400.57,473.748,400.546,473.749,400.523,473.749z"/>
	</g>
	<g>
		<path class="st19" d="M356.105,476.124c-3.313,0-6-2.686-6-6v-17.985c0-3.314,2.687-6,6-6s6,2.686,6,6v17.985
			C362.105,473.438,359.419,476.124,356.105,476.124z"/>
	</g>
	<g>
		<path class="st5" d="M348.647,133.96c-0.193,0-0.388-0.009-0.584-0.028c-3.298-0.319-5.714-3.251-5.395-6.549
			c1.645-17.028-9.467-24.979-9.941-25.309c-2.752-1.846-3.465-5.559-1.62-8.311c1.846-2.751,5.592-3.473,8.347-1.626
			c0.716,0.48,17.511,12.044,15.158,36.399C354.313,131.638,351.701,133.96,348.647,133.96z"/>
	</g>
	<g>
		<path class="st5" d="M316.845,66.959c-1.858,0-3.69-0.861-4.864-2.481c-11.738-16.205-42.542-18.632-42.851-18.654
			c-3.303-0.241-5.789-3.112-5.551-6.415c0.238-3.302,3.097-5.787,6.406-5.554c1.491,0.106,36.68,2.828,51.715,23.584
			c1.944,2.684,1.344,6.435-1.34,8.379C319.296,66.588,318.065,66.959,316.845,66.959z"/>
	</g>
	<g>
		<circle class="st21" cx="200.046" cy="463.013" r="15.27"/>
	</g>
	<g>
		<path class="st8" d="M261.656,129.675c41.516-3.743,38.058-35.658,35.935-45.63c-0.358-1.684-2.54-2.384-4.811-1.547
			c-13.72,5.058-56.333,23.128-35.378,45.862C258.319,129.354,259.881,129.835,261.656,129.675z"/>
	</g>
	<g>
		<path class="st9" d="M298.083,86.709c-0.158-1.002-0.329-1.898-0.492-2.664c-0.358-1.684-2.54-2.384-4.811-1.547
			c-6.233,2.298-18.427,7.281-27.917,14.166l0,0c0,0,0,0,0,0c-0.172,0.125-0.343,0.25-0.513,0.376
			c-0.023,0.017-0.046,0.034-0.069,0.051c-0.148,0.11-0.295,0.22-0.442,0.331c-0.032,0.024-0.063,0.048-0.095,0.072
			c-0.137,0.104-0.273,0.208-0.408,0.313c-0.038,0.029-0.076,0.059-0.113,0.088c-0.13,0.101-0.258,0.202-0.387,0.303
			c-0.039,0.031-0.078,0.062-0.118,0.093c-0.128,0.102-0.255,0.204-0.381,0.306c-0.037,0.03-0.075,0.061-0.112,0.091
			c-0.129,0.105-0.257,0.211-0.385,0.317c-0.033,0.027-0.066,0.055-0.099,0.082c-0.134,0.112-0.268,0.225-0.401,0.338
			c-0.025,0.022-0.051,0.043-0.076,0.065c-0.153,0.131-0.305,0.262-0.455,0.394c-0.003,0.003-0.007,0.006-0.01,0.009
			c-0.474,0.415-0.935,0.836-1.382,1.263c-0.018,0.017-0.036,0.035-0.054,0.052c-0.126,0.121-0.252,0.242-0.376,0.364
			c-0.032,0.031-0.064,0.063-0.095,0.094c-0.11,0.109-0.219,0.218-0.327,0.327c-0.038,0.038-0.075,0.076-0.112,0.114
			c-0.101,0.103-0.201,0.206-0.3,0.309c-0.041,0.042-0.081,0.085-0.121,0.127c-0.095,0.1-0.19,0.201-0.283,0.302
			c-0.041,0.044-0.082,0.089-0.123,0.133c-0.092,0.101-0.184,0.202-0.274,0.303c-0.039,0.044-0.078,0.087-0.117,0.131
			c-0.092,0.104-0.182,0.207-0.272,0.312c-0.036,0.042-0.073,0.084-0.109,0.126c-0.093,0.109-0.186,0.219-0.277,0.329
			c-0.03,0.037-0.061,0.073-0.092,0.11c-0.105,0.127-0.208,0.255-0.31,0.383c-0.015,0.019-0.03,0.038-0.045,0.056
			c-0.24,0.303-0.472,0.607-0.695,0.914c-0.003,0.004-0.007,0.009-0.01,0.014c-0.105,0.144-0.208,0.289-0.309,0.435
			c-0.025,0.035-0.048,0.071-0.073,0.106c-0.079,0.115-0.158,0.23-0.234,0.346c-0.031,0.046-0.061,0.093-0.091,0.139
			c-0.069,0.106-0.137,0.211-0.204,0.318c-0.033,0.052-0.064,0.103-0.096,0.155c-0.063,0.101-0.125,0.203-0.186,0.305
			c-0.033,0.055-0.065,0.11-0.098,0.165c-0.058,0.099-0.116,0.199-0.172,0.299c-0.032,0.056-0.064,0.113-0.095,0.17
			c-0.055,0.1-0.109,0.199-0.162,0.3c-0.03,0.056-0.06,0.113-0.09,0.169c-0.053,0.102-0.105,0.205-0.156,0.308
			c-0.027,0.054-0.054,0.108-0.081,0.163c-0.052,0.108-0.103,0.216-0.153,0.324c-0.023,0.05-0.047,0.1-0.07,0.15
			c-0.055,0.121-0.107,0.242-0.159,0.363c-0.016,0.037-0.033,0.074-0.048,0.111c-0.135,0.321-0.259,0.644-0.373,0.969
			c-0.011,0.031-0.02,0.062-0.031,0.092c-0.045,0.13-0.088,0.26-0.13,0.39c-0.016,0.051-0.031,0.102-0.046,0.153
			c-0.034,0.111-0.067,0.222-0.099,0.333c-0.017,0.059-0.032,0.118-0.048,0.177c-0.028,0.104-0.055,0.207-0.081,0.311
			c-0.016,0.064-0.03,0.127-0.045,0.191c-0.023,0.1-0.046,0.2-0.067,0.3c-0.014,0.066-0.027,0.132-0.04,0.198
			c-0.02,0.099-0.038,0.198-0.056,0.298c-0.012,0.067-0.023,0.134-0.034,0.202c-0.016,0.099-0.031,0.199-0.045,0.298
			c-0.009,0.067-0.019,0.134-0.028,0.202c-0.013,0.101-0.024,0.203-0.035,0.304c-0.007,0.066-0.014,0.131-0.02,0.197
			c-0.01,0.106-0.017,0.213-0.025,0.32c-0.004,0.061-0.009,0.122-0.013,0.183c-0.007,0.118-0.01,0.237-0.014,0.356
			c-0.001,0.05-0.004,0.099-0.005,0.149c-0.006,0.339-0.001,0.68,0.018,1.022c0.003,0.048,0.007,0.096,0.01,0.143
			c0.008,0.123,0.016,0.246,0.028,0.369c0.006,0.063,0.013,0.126,0.02,0.19c0.011,0.108,0.023,0.217,0.037,0.326
			c0.009,0.069,0.019,0.138,0.029,0.208c0.015,0.103,0.03,0.206,0.047,0.31c0.012,0.072,0.025,0.145,0.038,0.217
			c0.018,0.101,0.037,0.202,0.058,0.304c0.015,0.074,0.031,0.148,0.047,0.222c0.022,0.101,0.045,0.201,0.07,0.302
			c0.018,0.075,0.036,0.149,0.056,0.224c0.026,0.101,0.054,0.203,0.082,0.305c0.021,0.074,0.042,0.148,0.063,0.222
			c0.031,0.103,0.063,0.206,0.096,0.31c0.023,0.073,0.046,0.146,0.071,0.22c0.036,0.107,0.074,0.215,0.113,0.322
			c0.025,0.069,0.049,0.138,0.074,0.208c0.045,0.119,0.092,0.239,0.14,0.359c0.023,0.058,0.045,0.115,0.069,0.173
			c0.071,0.173,0.146,0.346,0.224,0.519c0.002,0.005,0.004,0.01,0.007,0.016c0.081,0.178,0.166,0.357,0.254,0.537
			c0.028,0.057,0.059,0.115,0.088,0.173c0.061,0.122,0.123,0.243,0.188,0.366c0.037,0.07,0.077,0.14,0.115,0.21
			c0.06,0.11,0.121,0.221,0.184,0.331c0.043,0.075,0.088,0.15,0.132,0.225c0.062,0.106,0.125,0.211,0.19,0.317
			c0.048,0.078,0.097,0.156,0.146,0.235c0.065,0.104,0.132,0.208,0.2,0.312c0.052,0.079,0.104,0.159,0.158,0.238
			c0.07,0.104,0.14,0.208,0.213,0.312c0.055,0.079,0.111,0.159,0.167,0.238c0.075,0.105,0.151,0.21,0.229,0.315
			c0.058,0.079,0.116,0.157,0.175,0.236c0.081,0.107,0.163,0.214,0.247,0.321c0.06,0.077,0.12,0.155,0.181,0.232
			c0.089,0.111,0.18,0.223,0.272,0.335c0.06,0.073,0.119,0.146,0.18,0.219c0.104,0.124,0.211,0.248,0.319,0.372
			c0.053,0.061,0.104,0.122,0.158,0.183c0.163,0.186,0.33,0.371,0.502,0.558c0.081,0.088,0.169,0.17,0.261,0.25
			c0.041,0.036,0.085,0.07,0.128,0.104c0.048,0.038,0.096,0.074,0.146,0.11c0.059,0.042,0.119,0.084,0.182,0.124
			c0.027,0.017,0.056,0.033,0.084,0.05c0.193,0.115,0.396,0.221,0.614,0.31c0.942,0.095,1.902,0.179,2.885,0.247
			c0.44,0.031,0.864,0.021,1.276-0.013c0.134-0.014,0.272-0.027,0.406-0.042c1.396-0.188,2.58-0.744,3.351-1.616
			c8.792-9.941,7.767-18.958,2.09-26.692c9.488-6.882,21.674-11.863,27.905-14.159C297.191,86.861,297.645,86.757,298.083,86.709z"
			/>
	</g>
	<g>
		<path class="st11" d="M254.279,130.907c-48.971-8.207-41.973-45.8-38.548-57.453c0.578-1.968,3.233-2.601,5.854-1.401
			c15.837,7.25,64.814,32.574,37.866,57.677C258.272,130.828,256.373,131.258,254.279,130.907z"/>
	</g>
	<g>
		<path class="st8" d="M224.765,73.547c-1.163-0.56-2.231-1.06-3.18-1.494c-2.621-1.2-5.276-0.566-5.854,1.401
			c-3.425,11.652-10.423,49.246,38.548,57.453c2.094,0.351,3.993-0.079,5.171-1.177c1.125-1.048,2.115-2.096,2.983-3.144
			C220.174,118.597,221.599,87.927,224.765,73.547z"/>
	</g>
	<g>
		<path class="st6" d="M258.428,127.843c-1.716,0-3.42-0.732-4.606-2.152l-12.875-15.4c-2.125-2.542-1.788-6.326,0.754-8.452
			c2.543-2.125,6.327-1.788,8.452,0.755l12.875,15.4c2.125,2.542,1.788,6.326-0.754,8.452
			C261.15,127.385,259.785,127.843,258.428,127.843z"/>
	</g>
</g>
</svg>
