<?xml version="1.0" encoding="utf-8"?>
<!-- Generator: Adobe Illustrator 24.0.0, SVG Export Plug-In . SVG Version: 6.00 Build 0)  -->
<svg version="1.1" id="Layer_1" xmlns="http://www.w3.org/2000/svg" xmlns:xlink="http://www.w3.org/1999/xlink" x="0px" y="0px"
	 viewBox="0 0 256 256" style="enable-background:new 0 0 256 256;" xml:space="preserve">
<style type="text/css">
	.st0{fill:#FFB69F;}
	.st1{fill:#72C2E9;}
	.st2{fill:#C2E5FF;}
	.st3{fill:#FC5D3D;}
	.st4{fill:#AFAFAF;}
	.st5{fill:#FFCBC3;}
	.st6{fill:#F0C020;}
	.st7{fill:#F8E5B0;}
	.st8{fill:#EFEFEF;}
	.st9{fill:#EEC21E;}
	.st10{fill:#FFFFFF;}
	.st11{fill:#F1BF21;}
	.st12{fill:#E8A61E;}
	.st13{fill:#7D7B79;}
	.st14{fill:#B34F33;}
	.st15{fill:#F8E5B2;}
	.st16{fill:#C5E5FE;}
	.st17{fill:#4C4944;}
	.st18{fill:#4BA5C8;}
	.st19{fill:#AFAEAF;}
	.st20{fill:#CF941C;}
	.st21{fill:#7C7B7A;}
	.st22{fill:#FAE0E1;}
	.st23{fill:#13BF6D;}
	.st24{fill:#76FFBB;}
	.st25{fill:#F2E1D7;}
	.st26{fill:#878787;}
	.st27{fill:#F9E5AF;}
	.st28{fill:#E8A61F;}
	.st29{fill:none;stroke:#000000;stroke-width:5;stroke-linecap:round;stroke-linejoin:round;stroke-miterlimit:10;}
	.st30{fill:#EFEFF0;}
	.st31{fill:#E8A61B;}
	.st32{fill:#EFEFEE;}
	.st33{fill:#4C4945;}
	.st34{fill:#EA8F7D;}
	.st35{fill:#D6C0B3;}
	.st36{fill:#EEC120;}
</style>
<g>
</g>
<g>
	<g>
		<path class="st6" d="M180.709,22.75v32.613c0,5.523-4.477,10-10,10H85.292c-5.523,0-10-4.477-10-10V22.75c0-5.523,4.477-10,10-10
			h85.418C176.232,12.75,180.709,17.227,180.709,22.75z"/>
		<path class="st7" d="M170.709,57.863H99.323c-1.381,0-2.5-1.119-2.5-2.5s1.119-2.5,2.5-2.5h68.887V22.75
			c0-1.381,1.119-2.5,2.5-2.5s2.5,1.119,2.5,2.5v32.613C173.209,56.744,172.09,57.863,170.709,57.863z M89.323,57.863h-4.031
			c-1.381,0-2.5-1.119-2.5-2.5s1.119-2.5,2.5-2.5h4.031c1.381,0,2.5,1.119,2.5,2.5S90.704,57.863,89.323,57.863z"/>
		<path class="st13" d="M155.797,65.363l-21.602,131.625c-1.152,7.017-11.236,7.017-12.388,0L100.204,65.363H155.797z"/>
		<path class="st8" d="M127.595,181.625c-1.362-0.224-2.285-1.509-2.062-2.872l17.199-104.796c0.224-1.363,1.508-2.287,2.872-2.062
			c1.362,0.224,2.285,1.509,2.062,2.872l-17.199,104.796C130.246,180.914,128.972,181.85,127.595,181.625z"/>
		<rect x="180.709" y="33.276" class="st13" width="17.041" height="11.561"/>
		<path class="st6" d="M197.75,49.363V28.75h45.253c2.761,0,5,2.239,5,5v10.613c0,2.761-2.239,5-5,5H197.75z"/>
		<rect x="58.25" y="33.276" class="st13" width="17.041" height="11.561"/>
		<path class="st6" d="M58.25,28.75v20.613H12.998c-2.761,0-5-2.239-5-5V33.75c0-2.761,2.239-5,5-5H58.25z"/>
		<path class="st14" d="M249.477,153.68v92.07H6.524v-92.07H90.37l7.75,47.2c2.42,14.7,14.98,25.37,29.88,25.37
			s27.46-10.67,29.88-25.38l7.75-47.19H249.477z"/>
		<path class="st7" d="M238.314,42.375h-30.875c-1.381,0-2.5-1.119-2.5-2.5s1.119-2.5,2.5-2.5h30.875c1.381,0,2.5,1.119,2.5,2.5
			S239.695,42.375,238.314,42.375z"/>
		<path class="st7" d="M48.562,42.375H17.687c-1.381,0-2.5-1.119-2.5-2.5s1.119-2.5,2.5-2.5h30.875c1.381,0,2.5,1.119,2.5,2.5
			S49.943,42.375,48.562,42.375z"/>
	</g>
	<path d="M99.167,34.723v8.667c0,1.381,1.119,2.5,2.5,2.5s2.5-1.119,2.5-2.5v-8.667c0-1.381-1.119-2.5-2.5-2.5
		S99.167,33.342,99.167,34.723z"/>
	<path d="M112.333,43.39c0,1.381,1.119,2.5,2.5,2.5s2.5-1.119,2.5-2.5v-8.667c0-1.381-1.119-2.5-2.5-2.5s-2.5,1.119-2.5,2.5V43.39z"
		/>
	<path d="M130.5,43.39v-8.667c0-1.381-1.119-2.5-2.5-2.5s-2.5,1.119-2.5,2.5v8.667c0,1.381,1.119,2.5,2.5,2.5
		S130.5,44.771,130.5,43.39z"/>
	<path d="M143.667,43.39v-8.667c0-1.381-1.119-2.5-2.5-2.5s-2.5,1.119-2.5,2.5v8.667c0,1.381,1.119,2.5,2.5,2.5
		S143.667,44.771,143.667,43.39z"/>
	<path d="M156.833,43.39v-8.667c0-1.381-1.119-2.5-2.5-2.5s-2.5,1.119-2.5,2.5v8.667c0,1.381,1.119,2.5,2.5,2.5
		S156.833,44.771,156.833,43.39z"/>
	<path d="M103.77,87.11c1.36-0.22,2.29-1.51,2.061-2.87c-0.221-1.35-1.511-2.28-2.87-2.06c-1.377,0.23-2.285,1.518-2.061,2.87
		C101.151,86.579,102.64,87.369,103.77,87.11z"/>
	<path d="M170.71,67.86c6.89,0,12.5-5.61,12.5-12.5v-8.023h12.04v2.026c0,1.381,1.119,2.5,2.5,2.5h45.253c4.136,0,7.5-3.364,7.5-7.5
		V33.75c0-4.136-3.364-7.5-7.5-7.5H197.75c-1.381,0-2.5,1.119-2.5,2.5v2.026h-12.04V22.75c0-6.89-5.61-12.5-12.5-12.5H117.5
		c-1.38,0-2.5,1.12-2.5,2.5c0,1.38,1.12,2.5,2.5,2.5h53.21c4.13,0.01,7.49,3.37,7.5,7.5c0,1.007,0,28.495,0,32.61
		c-0.01,4.13-3.37,7.49-7.5,7.5c-9.399,0-74.578,0-85.42,0c-4.13-0.01-7.49-3.37-7.5-7.5c0-1.513,0-26.114,0-32.61
		c0.01-4.13,3.37-7.49,7.5-7.5H97.5c1.38,0,2.5-1.12,2.5-2.5c0-1.38-1.12-2.5-2.5-2.5h-12.21c-6.891,0-12.5,5.61-12.5,12.5v8.026
		H60.75V28.75c0-1.381-1.119-2.5-2.5-2.5H12.998c-4.136,0-7.5,3.364-7.5,7.5v10.613c0,4.136,3.364,7.5,7.5,7.5H58.25
		c1.381,0,2.5-1.119,2.5-2.5v-2.026h12.04v8.023c0,6.89,5.609,12.5,12.5,12.5h12.784l1.206,7.32c0.22,1.35,1.52,2.29,2.869,2.07
		c1.36-0.23,2.29-1.51,2.07-2.88l-1.07-6.51h49.7l-2.758,16.811l-41.897,13.973l-0.744-4.534c-0.221-1.35-1.511-2.28-2.87-2.06
		c-1.346,0.224-2.286,1.507-2.061,2.87l0.874,5.325l-8.153,2.719c-1.31,0.437-2.018,1.853-1.58,3.163
		c0.435,1.307,1.849,2.018,3.162,1.581l7.392-2.465l2.121,12.918l-8.017,2.673c-3.248,0.878-1.794,5.869,1.455,4.786l7.382-2.462
		l2.12,12.914l-8.146,2.717c-1.31,0.437-2.018,1.853-1.58,3.163c0.435,1.307,1.849,2.018,3.162,1.581l7.384-2.463l2.12,12.913
		l-8.148,2.719c-1.31,0.437-2.018,1.853-1.58,3.163c0.438,1.316,1.86,2.015,3.162,1.581l7.386-2.464l2.118,12.904l-8.148,2.718
		c-1.31,0.437-2.018,1.853-1.58,3.163c0.435,1.307,1.849,2.018,3.162,1.581l7.386-2.463l2.122,12.924l-8.151,2.72
		c-1.31,0.437-2.018,1.853-1.58,3.163c0.435,1.307,1.849,2.018,3.162,1.581l7.39-2.466l0.425,2.588c0.692,4.456,4.37,7.36,8.66,7.36
		c3.7,0.04,7.89-2.46,8.66-7.36l1.477-9.002l9.917-3.309c1.31-0.437,2.018-1.853,1.58-3.163c-0.437-1.309-1.851-2.017-3.162-1.581
		l-7.42,2.476l2.366-14.418l9.915-3.307c1.31-0.437,2.018-1.853,1.58-3.163c-0.436-1.309-1.849-2.017-3.162-1.581l-7.418,2.474
		l2.364-14.403l9.916-3.309c1.31-0.437,2.018-1.853,1.58-3.163c-0.436-1.309-1.854-2.017-3.162-1.581l-7.419,2.475l2.364-14.405
		l9.915-3.307c1.31-0.437,2.018-1.853,1.58-3.163c-0.436-1.309-1.849-2.017-3.162-1.581l-7.418,2.474l2.364-14.405l9.915-3.306
		c1.31-0.437,2.018-1.853,1.581-3.163c-0.438-1.309-1.85-2.017-3.163-1.581l-7.418,2.474l2.366-14.416l9.914-3.306
		c1.31-0.437,2.018-1.853,1.58-3.163c-0.436-1.31-1.85-2.018-3.162-1.581l-7.417,2.474l2.465-15.023H170.71z M200.25,31.25h42.753
		c1.379,0,2.5,1.122,2.5,2.5v10.613c0,1.378-1.121,2.5-2.5,2.5H200.25C200.25,41.282,200.25,36.83,200.25,31.25z M195.25,35.776
		v6.561h-12.04v-6.561H195.25z M55.75,46.863H12.998c-1.379,0-2.5-1.122-2.5-2.5V33.75c0-1.378,1.121-2.5,2.5-2.5H55.75
		C55.75,36.827,55.75,41.28,55.75,46.863z M60.75,42.337v-6.561h12.04v6.561H60.75z M131.73,196.58
		c-0.46,2.51-2.279,3.11-3.729,3.17c-1.45-0.06-3.271-0.66-3.73-3.17l-0.555-3.38l9.066-3.025L131.73,196.58z M133.696,184.599
		l-10.801,3.604l-2.121-12.924l15.288-5.099L133.696,184.599z M136.977,164.604l-17.023,5.677l-2.118-12.904l21.504-7.175
		L136.977,164.604z M140.255,144.626l-23.239,7.754l-2.12-12.913l27.723-9.247L140.255,144.626z M143.533,124.644l-29.458,9.826
		l-2.12-12.913l33.941-11.318L143.533,124.644z M146.812,104.663l-35.676,11.897l-2.12-12.918l40.162-13.394L146.812,104.663z"/>
	<circle cx="107.5" cy="12.75" r="2.5"/>
	<circle cx="200.781" cy="153.68" r="2.5"/>
	<path d="M4.02,153.68c0,1.38,1.13,2.5,2.5,2.5c0.011,0,0.011,0,0.021,0h81.71l7.399,45.11c2.612,15.859,16.151,27.46,32.36,27.46
		c16.317,0,29.76-11.732,32.34-27.47l7.4-45.1h23.03c1.38,0,2.5-1.12,2.5-2.5c0-1.38-1.12-2.5-2.5-2.5h-25.15
		c-1.23,0-2.271,0.88-2.47,2.09l-7.75,47.19c-2.221,13.49-13.75,23.28-27.41,23.29c-13.66-0.01-25.19-9.79-27.41-23.28l-7.75-47.2
		c-0.2-1.21-1.24-2.09-2.47-2.09H6.52C5.15,151.18,4.02,152.3,4.02,153.68z"/>
	<path d="M249.48,151.18h-38.699c-1.381,0-2.5,1.12-2.5,2.5c0,1.38,1.119,2.5,2.5,2.5h38.699c1.37,0,2.5-1.12,2.5-2.5
		C251.98,152.3,250.85,151.18,249.48,151.18z"/>
	<path d="M32.5,184v-1.292c0-1.381-1.119-2.5-2.5-2.5s-2.5,1.119-2.5,2.5V184c0,1.381,1.119,2.5,2.5,2.5S32.5,185.381,32.5,184z"/>
	<path d="M189.75,180.439v-1.292c0-1.381-1.119-2.5-2.5-2.5s-2.5,1.119-2.5,2.5v1.292c0,1.381,1.119,2.5,2.5,2.5
		S189.75,181.82,189.75,180.439z"/>
	<path d="M172.75,226.896v-1.293c0-1.381-1.119-2.5-2.5-2.5s-2.5,1.119-2.5,2.5v1.293c0,1.381,1.119,2.5,2.5,2.5
		S172.75,228.277,172.75,226.896z"/>
	<path d="M195.25,212.708V214c0,1.381,1.119,2.5,2.5,2.5s2.5-1.119,2.5-2.5v-1.292c0-1.381-1.119-2.5-2.5-2.5
		S195.25,211.327,195.25,212.708z"/>
	<path d="M76.75,218.354c-1.381,0-2.5,1.119-2.5,2.5v1.293c0,1.381,1.119,2.5,2.5,2.5s2.5-1.119,2.5-2.5v-1.293
		C79.25,219.473,78.131,218.354,76.75,218.354z"/>
	<path d="M228,222.146v1.292c0,1.381,1.119,2.5,2.5,2.5s2.5-1.119,2.5-2.5v-1.292c0-1.381-1.119-2.5-2.5-2.5
		S228,220.766,228,222.146z"/>
	<path d="M220.75,193.042v-1.292c0-1.381-1.119-2.5-2.5-2.5s-2.5,1.119-2.5,2.5v1.292c0,1.381,1.119,2.5,2.5,2.5
		S220.75,194.423,220.75,193.042z"/>
	<path d="M20.5,222.792V221.5c0-1.381-1.119-2.5-2.5-2.5s-2.5,1.119-2.5,2.5v1.292c0,1.381,1.119,2.5,2.5,2.5
		S20.5,224.173,20.5,222.792z"/>
	<path d="M49.75,206.75v-1.292c0-1.381-1.119-2.5-2.5-2.5s-2.5,1.119-2.5,2.5v1.292c0,1.381,1.119,2.5,2.5,2.5
		S49.75,208.131,49.75,206.75z"/>
	<path d="M234.25,171.136v-1.293c0-1.381-1.119-2.5-2.5-2.5s-2.5,1.119-2.5,2.5v1.293c0,1.381,1.119,2.5,2.5,2.5
		S234.25,172.517,234.25,171.136z"/>
	<path d="M59,179.792V178.5c0-1.381-1.119-2.5-2.5-2.5s-2.5,1.119-2.5,2.5v1.292c0,1.381,1.119,2.5,2.5,2.5S59,181.173,59,179.792z"
		/>
</g>
</svg>
