<?xml version="1.0" standalone="no"?><svg xmlns="http://www.w3.org/2000/svg" viewBox="0 0 1440 320"><path fill="#0099ff" fill-opacity="1" d="M0,192L18.5,202.7C36.9,213,74,235,111,234.7C147.7,235,185,213,222,218.7C258.5,224,295,256,332,272C369.2,288,406,288,443,256C480,224,517,160,554,122.7C590.8,85,628,75,665,90.7C701.5,107,738,149,775,149.3C812.3,149,849,107,886,85.3C923.1,64,960,64,997,96C1033.8,128,1071,192,1108,213.3C1144.6,235,1182,213,1218,197.3C1255.4,181,1292,171,1329,149.3C1366.2,128,1403,96,1422,80L1440,64L1440,320L1421.5,320C1403.1,320,1366,320,1329,320C1292.3,320,1255,320,1218,320C1181.5,320,1145,320,1108,320C1070.8,320,1034,320,997,320C960,320,923,320,886,320C849.2,320,812,320,775,320C738.5,320,702,320,665,320C627.7,320,591,320,554,320C516.9,320,480,320,443,320C406.2,320,369,320,332,320C295.4,320,258,320,222,320C184.6,320,148,320,111,320C73.8,320,37,320,18,320L0,320Z"></path></svg>